<?xml version="1.0" standalone="no"?>
<!DOCTYPE svg PUBLIC "-//W3C//DTD SVG 20010904//EN"
 "http://www.w3.org/TR/2001/REC-SVG-20010904/DTD/svg10.dtd">
<svg version="1.0" xmlns="http://www.w3.org/2000/svg"
 width="1920.000000pt" height="1080.000000pt" viewBox="0 0 1920.000000 1080.000000"
 preserveAspectRatio="xMidYMid meet">

<g transform="translate(0.000000,1080.000000) scale(0.100000,-0.100000)"
fill="#000000" stroke="none">
<path d="M86 10653 c-62 -108 -86 -157 -86 -183 0 -32 1 -33 13 -15 25 36 197
333 197 339 0 3 -9 6 -19 6 -15 0 -42 -38 -105 -147z"/>
<path d="M276 10772 c-24 -46 -46 -146 -46 -206 0 -65 -15 -107 -62 -170 -41
-55 -62 -65 -121 -59 l-47 6 0 -36 c0 -31 12 -48 102 -144 154 -163 315 -330
491 -508 87 -88 169 -179 182 -202 13 -24 22 -43 20 -43 -3 0 -29 16 -60 35
-59 38 -115 55 -115 36 0 -13 108 -85 187 -125 54 -27 93 -34 93 -16 0 15 -36
84 -117 226 l-70 121 55 84 c74 113 118 202 137 274 18 71 19 111 3 121 -18
12 -48 -35 -48 -75 0 -24 -9 -49 -25 -71 -16 -21 -25 -47 -25 -69 0 -28 -10
-46 -44 -84 -31 -33 -43 -53 -39 -67 3 -11 0 -20 -5 -20 -16 0 -32 34 -32 65
0 15 -11 36 -25 49 -28 26 -32 46 -11 46 11 0 13 7 7 28 -7 27 -4 62 6 62 2 0
14 -10 25 -22 14 -16 18 -18 14 -6 -17 55 -16 88 3 146 31 90 26 139 -9 97 -8
-9 -10 -27 -6 -46 6 -31 -14 -84 -35 -91 -6 -2 -12 -24 -14 -49 -1 -25 -6 -56
-10 -68 -7 -22 -7 -22 -27 -4 -11 10 -33 44 -48 75 -15 32 -39 74 -51 95 -33
52 -33 130 -1 156 12 10 36 39 54 65 18 25 47 63 65 83 l33 36 -56 107 c-31
59 -58 105 -60 103 -3 -2 7 -40 21 -83 13 -44 25 -94 25 -112 0 -35 -48 -140
-74 -161 -14 -12 -18 -9 -30 20 -8 19 -17 52 -21 74 -15 90 -17 97 -27 87 -7
-7 -6 -37 2 -94 16 -108 12 -152 -15 -156 -30 -4 -143 72 -150 101 -4 13 2 62
13 108 11 46 23 115 27 154 3 38 10 89 14 112 8 41 7 43 -15 43 -16 0 -28 -9
-38 -28z m67 -513 c28 -19 66 -47 85 -63 60 -52 186 -255 235 -377 24 -61 38
-151 25 -164 -13 -13 -80 27 -132 79 -31 31 -56 58 -56 61 0 3 10 5 23 5 18 0
19 2 7 10 -8 5 -27 10 -42 10 -19 0 -35 10 -55 37 -28 37 -57 65 -103 101
l-24 19 49 -8 c28 -4 68 -8 90 -8 l40 0 -37 20 c-21 10 -61 21 -89 24 -29 3
-60 11 -68 19 -9 7 -25 16 -36 20 -19 7 -19 8 -3 20 16 12 15 14 -15 23 -21 6
-32 15 -31 26 1 10 -17 30 -43 48 -32 23 -42 34 -34 42 18 18 13 24 -31 42
l-43 17 36 19 c20 10 39 25 42 34 5 11 21 15 57 15 45 0 50 2 50 22 0 18 5 15
26 -18 14 -22 49 -56 77 -75z"/>
<path d="M405 10735 c1 -47 7 -71 19 -83 16 -16 17 -16 6 9 -8 17 -9 33 -3 45
11 23 2 86 -13 91 -8 3 -11 -16 -9 -62z"/>
<path d="M675 10710 c65 -49 126 -90 136 -90 19 0 39 28 39 53 0 9 -39 40 -87
71 -81 52 -93 56 -147 56 l-59 0 118 -90z m128 -15 c15 -3 27 -12 27 -20 0
-22 -21 -18 -68 12 -47 31 -57 50 -14 28 15 -8 39 -17 55 -20z"/>
<path d="M906 10753 c-9 -26 -16 -61 -16 -79 0 -29 7 -38 62 -75 99 -67 314
-256 304 -266 -5 -5 -58 22 -96 47 -14 9 -43 29 -65 43 -46 31 -132 111 -162
153 -32 43 -40 21 -19 -54 32 -118 36 -145 29 -230 -5 -72 -3 -85 13 -103 44
-49 163 -86 429 -134 83 -15 153 -29 158 -32 13 -8 -2 -21 -41 -34 -191 -61
-326 -137 -393 -221 -48 -61 -117 -200 -148 -303 -32 -103 -61 -297 -61 -405
0 -142 12 -148 99 -50 29 33 94 93 144 134 169 136 313 305 355 419 22 59 38
154 47 272 6 77 18 152 28 161 9 9 29 -27 43 -78 9 -34 14 -97 13 -178 -1
-259 -3 -244 52 -489 43 -192 66 -252 135 -348 74 -104 172 -181 444 -352 63
-40 130 -83 148 -96 39 -28 254 -120 318 -136 73 -19 72 -1 -1 82 -141 159
-171 222 -241 519 -92 393 -108 424 -300 603 -126 116 -217 189 -360 285 -86
57 -210 169 -199 180 2 2 47 -28 98 -67 52 -40 118 -81 146 -91 76 -30 168
-26 272 9 73 24 294 131 424 204 135 76 165 93 210 121 43 27 62 32 145 38
117 8 148 17 231 67 l64 39 3 -31 c4 -37 -26 -193 -43 -227 -7 -14 -29 -41
-49 -60 -55 -52 -136 -182 -151 -242 -35 -138 -28 -236 30 -438 18 -63 39
-148 46 -188 14 -82 31 -114 50 -95 15 15 100 313 128 452 28 134 30 235 6
404 -16 119 -17 147 -6 205 30 163 50 318 57 457 12 226 12 249 -7 253 -14 2
-17 -17 -22 -140 -10 -214 -16 -256 -38 -263 -10 -4 -75 6 -145 21 -121 26
-130 27 -218 15 -104 -15 -212 -58 -317 -127 -45 -30 -78 -44 -100 -44 -43 0
-79 -10 -79 -21 0 -5 9 -9 19 -9 29 0 33 -15 13 -40 -14 -17 -32 -23 -85 -27
-46 -4 -67 -10 -67 -19 0 -12 -57 -34 -87 -34 -7 0 -13 -4 -13 -10 0 -5 3 -10
6 -10 28 0 234 38 339 62 183 42 223 50 253 46 25 -3 23 -6 -31 -41 -82 -54
-279 -150 -362 -177 -38 -13 -99 -38 -135 -56 -73 -38 -214 -69 -270 -60 -19
3 -42 7 -50 8 -8 0 -21 10 -28 20 -7 10 -18 16 -23 13 -9 -6 -100 52 -107 68
-2 4 -13 7 -25 7 -17 0 -97 46 -97 55 0 2 9 1 20 -2 23 -6 70 4 70 15 0 4 -16
14 -35 22 l-36 15 28 27 c55 54 129 105 178 122 80 27 290 43 377 28 40 -7 80
-20 90 -29 10 -9 18 -14 19 -12 1 2 2 18 4 36 2 30 0 32 -49 45 -32 8 -113 13
-221 13 -187 0 -248 -12 -314 -64 -18 -14 -44 -34 -58 -45 l-24 -18 -83 85
c-55 56 -95 109 -121 158 -21 41 -61 98 -88 127 -28 29 -48 54 -46 56 2 2 33
17 69 34 36 16 99 56 140 88 l75 59 -37 3 c-26 2 -47 -4 -79 -26 -24 -16 -70
-45 -102 -63 -33 -19 -65 -46 -72 -60 -15 -28 -46 -44 -110 -56 l-40 -7 60 -7
c53 -6 64 -11 95 -46 19 -22 52 -73 74 -114 53 -101 76 -139 86 -139 12 0 70
-57 70 -69 0 -9 60 -31 88 -31 6 0 12 -2 12 -4 0 -4 -52 -119 -56 -125 -5 -6
-71 54 -239 218 -125 123 -337 319 -364 338 -2 2 -2 6 1 9 3 3 25 -4 48 -16
23 -12 45 -19 48 -16 8 9 -27 33 -75 52 -29 11 -43 23 -43 35 0 11 -5 19 -11
19 -7 0 -9 -11 -6 -30 6 -28 5 -29 -13 -18 -22 14 -33 35 -24 49 3 5 22 17 42
27 42 20 49 34 28 55 -12 12 -13 17 -3 20 6 3 -4 6 -25 6 -34 1 -37 -1 -52
-46z m120 -312 c33 -22 70 -51 83 -65 14 -14 32 -26 41 -26 10 0 44 -13 76
-30 36 -18 61 -25 65 -19 6 10 182 -169 222 -226 l21 -30 -25 22 c-13 12 -46
27 -74 34 -27 6 -59 16 -70 20 -11 5 -46 11 -78 13 -32 2 -63 8 -70 14 -7 5
-30 12 -51 15 -44 7 -138 52 -161 77 -18 20 -25 60 -14 82 6 11 0 39 -16 82
-14 37 -25 69 -25 71 0 12 22 2 76 -34z m2043 -47 c72 -16 94 -34 43 -34 -33
0 -133 28 -146 41 -15 14 22 11 103 -7z m-124 -19 c82 -27 188 -47 210 -38 33
12 12 -24 -28 -49 -79 -50 -247 -78 -261 -43 -4 12 -32 15 -163 15 l-158 1 25
20 c65 55 212 118 273 119 16 0 62 -11 102 -25z m244 -506 c0 -50 6 -119 12
-153 16 -88 -2 -292 -31 -346 -5 -10 -10 -25 -10 -34 0 -23 -44 -116 -55 -116
-5 0 -21 42 -34 93 -71 277 -68 371 16 527 34 63 79 120 94 120 4 0 8 -41 8
-91z m-1721 21 c10 -17 10 -20 -2 -20 -28 0 -27 -20 1 -49 25 -24 29 -36 30
-91 2 -58 -2 -72 -47 -160 -35 -68 -61 -104 -88 -125 -28 -21 -37 -34 -34 -50
2 -15 -8 -33 -32 -59 -40 -40 -277 -219 -283 -212 -2 2 8 34 22 71 43 116 29
115 -30 -2 l-40 -78 -3 40 c-2 22 1 63 6 90 6 28 16 79 22 115 13 70 47 160
61 160 5 0 9 14 9 30 0 40 49 138 60 120 11 -18 28 -4 28 25 0 37 25 69 94
118 62 44 168 96 198 97 8 0 21 -9 28 -20z m462 -545 c28 -49 60 -104 70 -122
125 -216 345 -537 361 -527 12 7 -2 32 -35 63 -14 14 -26 31 -26 39 0 7 -14
28 -32 45 -17 17 -48 69 -68 116 -21 46 -50 94 -64 108 -15 13 -44 59 -65 102
-22 43 -51 92 -65 108 -32 39 -33 47 -1 39 14 -4 25 -4 25 -2 0 2 -22 20 -49
39 -28 20 -51 46 -55 61 -3 14 -17 42 -31 62 -19 27 -22 41 -15 54 14 25 15
23 -35 59 -46 33 -57 51 -30 51 21 0 19 6 -14 48 -33 43 -58 106 -38 99 6 -2
15 -19 18 -38 6 -34 10 -31 25 18 2 8 23 -7 51 -35 26 -26 94 -78 149 -115
125 -83 141 -97 153 -131 6 -14 22 -31 36 -36 14 -5 29 -21 35 -34 5 -13 17
-30 28 -37 30 -22 94 -149 89 -177 -3 -14 3 -39 13 -56 10 -17 24 -51 30 -75
6 -24 22 -54 35 -67 24 -24 24 -24 4 -35 -21 -11 -21 -11 1 -34 17 -18 24 -43
31 -102 5 -43 24 -127 43 -188 19 -60 32 -112 30 -114 -2 -2 -19 8 -39 23 -23
18 -35 22 -35 13 0 -19 40 -55 77 -68 21 -7 35 -20 42 -41 6 -17 9 -33 7 -35
-7 -7 -69 28 -103 58 -18 16 -39 26 -46 23 -7 -2 -22 8 -34 24 -11 15 -58 50
-104 76 -46 27 -97 62 -112 78 -17 18 -34 28 -43 24 -66 -25 -364 290 -364
387 0 23 -8 41 -26 58 -24 22 -25 29 -20 80 7 61 -13 207 -38 276 -10 29 -16
91 -18 193 l-4 151 102 -208 c55 -114 125 -248 154 -298z"/>
<path d="M1375 9789 c-42 -15 -45 -18 -22 -18 42 -1 31 -31 -18 -48 -22 -7
-53 -25 -70 -39 l-30 -25 40 7 c22 4 59 8 83 8 37 1 42 4 42 23 0 13 7 41 16
63 9 23 15 42 13 44 -2 2 -26 -5 -54 -15z"/>
<path d="M1256 9621 c-15 -6 -16 -10 -7 -15 9 -6 4 -17 -20 -42 -18 -19 -31
-34 -28 -34 2 0 22 7 44 14 36 12 40 18 43 50 3 37 0 40 -32 27z"/>
<path d="M1183 9491 c-11 -9 -28 -30 -37 -48 -9 -17 -24 -38 -33 -45 -22 -16
-31 -102 -11 -96 7 3 18 19 23 36 6 18 18 38 26 44 9 7 21 27 28 45 7 17 21
33 32 36 22 6 26 32 6 40 -7 3 -23 -2 -34 -12z"/>
<path d="M2062 9304 c3 -18 92 -57 117 -52 18 4 -35 38 -87 56 -29 10 -33 9
-30 -4z"/>
<path d="M1877 9170 c-10 -37 -8 -78 3 -85 16 -10 21 16 12 65 -7 39 -9 42
-15 20z"/>
<path d="M1900 8946 c0 -15 40 -69 47 -63 4 5 -36 77 -43 77 -2 0 -4 -6 -4
-14z"/>
<path d="M1037 10793 c-10 -9 -9 -23 1 -23 5 0 17 7 28 15 19 14 19 14 -2 15
-11 0 -24 -3 -27 -7z"/>
<path d="M2565 10783 c-7 -20 -6 -58 1 -66 4 -3 21 1 38 10 17 9 67 29 111 44
l80 28 -112 -1 c-87 -1 -113 -4 -118 -15z"/>
<path d="M3390 10796 c0 -10 140 -296 163 -332 14 -23 22 -45 18 -50 -17 -19
-93 -168 -110 -217 -68 -187 -45 -406 63 -611 17 -33 42 -85 53 -113 35 -84
60 -65 74 54 6 43 17 103 25 133 40 151 24 335 -47 533 -37 103 -50 177 -30
177 5 0 53 -69 107 -152 55 -84 122 -180 149 -212 28 -33 75 -90 105 -127 30
-38 90 -106 133 -153 l79 -85 -12 -36 c-13 -40 -68 -100 -150 -164 -66 -51
-175 -172 -200 -221 -24 -47 -60 -179 -60 -219 0 -57 21 -111 43 -111 10 0 52
31 92 69 41 37 114 95 163 129 99 68 129 102 175 200 29 62 32 75 32 170 0 56
3 102 6 102 3 0 55 -51 115 -112 102 -106 111 -118 141 -198 47 -123 100 -182
281 -314 108 -79 149 -97 285 -132 55 -14 113 -32 128 -40 27 -14 79 -20 79
-9 0 17 -56 112 -107 180 -69 93 -161 179 -253 239 -81 52 -94 58 -225 95 -59
17 -121 39 -138 48 -32 16 -231 205 -247 233 -7 13 7 15 99 17 103 2 111 3
311 72 112 39 216 71 230 71 14 0 32 4 40 10 12 7 11 12 -5 30 -49 54 -206 96
-350 94 -70 -1 -98 -8 -225 -54 -104 -38 -164 -54 -212 -57 l-67 -5 -43 44
c-109 112 -305 354 -295 364 2 2 45 -16 95 -41 147 -73 238 -89 361 -65 29 5
94 10 142 10 112 0 115 11 23 97 -102 96 -193 124 -459 143 -175 12 -207 19
-272 64 -57 39 -112 125 -208 324 -41 83 -70 132 -80 132 -8 0 -15 -2 -15 -4z
m164 -608 c4 -57 13 -125 20 -153 55 -198 72 -365 47 -452 -13 -46 -36 -57
-44 -20 -2 12 -17 54 -32 92 -35 91 -85 280 -85 325 0 87 57 310 80 310 4 0
10 -46 14 -102z m416 62 c231 -10 313 -34 427 -128 41 -33 50 -62 14 -46 -9 4
-106 8 -216 8 l-200 1 -70 39 c-90 49 -215 169 -147 141 9 -4 96 -11 192 -15z
m-346 -110 c30 -86 53 -251 46 -325 -6 -65 -15 -50 -35 60 -9 50 -20 99 -25
110 -23 48 -41 261 -21 240 5 -6 21 -44 35 -85z m1196 -356 c45 -15 87 -40 79
-48 -8 -7 -273 -98 -343 -117 -126 -35 -280 -16 -330 40 -21 23 -17 26 64 41
36 6 128 31 205 55 77 24 151 45 165 48 38 6 110 -2 160 -19z m-610 -300 c0
-101 -20 -163 -83 -259 -47 -73 -63 -87 -172 -162 -66 -46 -124 -83 -129 -83
-16 0 1 153 24 215 19 50 38 75 115 150 112 110 227 214 238 215 4 0 7 -34 7
-76z m499 -238 c94 -25 221 -83 256 -117 17 -17 18 -19 2 -19 -43 0 -357 131
-357 149 0 14 -6 15 99 -13z m148 -129 c182 -67 198 -75 240 -119 62 -64 122
-211 70 -170 -7 5 -70 39 -142 77 -71 37 -137 73 -145 80 -8 8 -42 27 -76 44
-61 32 -186 138 -224 191 l-21 29 73 -38 c40 -21 142 -63 225 -94z m-217 13
c0 -22 238 -178 394 -257 57 -29 30 -35 -45 -10 -78 27 -218 119 -311 206 -66
62 -84 86 -53 75 8 -4 15 -10 15 -14z m-851 -127 c0 -29 -2 -33 -8 -18 -7 18
-4 55 5 55 2 0 4 -17 3 -37z"/>
<path d="M3575 10792 c6 -5 46 -34 90 -64 67 -45 111 -64 273 -117 105 -36
194 -62 197 -59 3 3 -18 39 -47 80 -29 41 -68 96 -85 121 -28 41 -37 47 -68
47 l-35 0 70 -82 c38 -46 70 -88 70 -95 0 -7 -31 2 -77 24 -43 19 -89 39 -103
45 -24 9 -24 9 -5 -11 14 -16 15 -21 4 -21 -17 0 -127 52 -154 74 -28 22 -7
20 40 -4 21 -11 41 -18 43 -15 7 6 8 6 -66 49 -63 36 -100 47 -86 24 5 -8 2
-9 -12 -4 -37 16 -60 19 -49 8z"/>
<path d="M4660 10753 c1 -62 15 -124 32 -134 17 -11 48 26 91 106 41 78 40 75
29 75 -6 0 -25 -25 -42 -55 -18 -31 -37 -54 -44 -52 -6 2 -12 27 -14 55 -3 48
-5 52 -28 52 -22 0 -24 -4 -24 -47z m49 -77 c11 -13 11 -20 3 -28 -19 -19 -26
-1 -28 70 -2 59 -2 61 5 21 3 -26 13 -54 20 -63z"/>
<path d="M4897 10743 c-67 -150 -105 -365 -77 -433 8 -19 19 -30 28 -28 8 2
55 66 104 143 49 77 125 190 169 252 43 62 79 115 79 118 0 16 -18 0 -42 -38
-15 -24 -37 -52 -49 -63 -15 -13 -11 -1 14 39 40 61 42 67 28 67 -8 0 -157
-242 -194 -315 -41 -83 -89 -165 -99 -171 -18 -11 -28 19 -28 86 0 81 25 179
74 290 21 47 40 91 43 98 3 6 -1 12 -10 12 -8 0 -26 -25 -40 -57z"/>
<path d="M5228 10677 c-142 -226 -188 -344 -196 -503 l-4 -100 32 -37 c37 -43
58 -39 83 15 8 18 27 60 42 93 15 33 66 139 112 235 109 224 143 308 150 373
8 68 -4 56 -23 -23 -17 -75 -72 -210 -85 -210 -5 0 -3 12 5 28 26 51 76 203
75 230 0 18 -6 7 -18 -33 -60 -204 -279 -711 -303 -703 -29 10 -35 144 -13
272 21 120 48 170 226 415 45 63 47 71 17 71 -18 -1 -39 -27 -100 -123z m-169
-562 c1 -29 -2 -36 -9 -25 -5 8 -9 35 -9 60 0 34 2 40 9 25 5 -11 9 -38 9 -60z"/>
<path d="M5521 10759 c29 -57 20 -106 -37 -205 -150 -259 -174 -310 -230 -484
-37 -114 -47 -181 -42 -277 5 -98 24 -147 64 -165 20 -9 28 -9 39 3 12 12 94
219 141 357 8 24 30 75 48 115 19 40 48 116 65 170 26 83 31 113 32 205 l0
107 56 -114 57 -114 -17 -46 c-9 -25 -45 -100 -81 -166 -36 -66 -83 -173 -105
-239 -41 -120 -49 -156 -32 -156 6 0 9 -40 8 -94 -1 -52 -5 -87 -9 -77 -3 10
-6 48 -6 85 1 37 -3 70 -7 74 -15 14 1 -192 18 -224 26 -51 42 -59 67 -32 89
92 237 609 215 745 -6 35 -3 32 39 -37 25 -41 46 -87 46 -103 0 -15 -21 -71
-46 -124 -122 -255 -170 -451 -159 -647 10 -175 32 -256 70 -256 20 0 31 28
103 250 83 256 122 479 107 612 -4 32 -3 58 2 58 4 0 34 -41 66 -91 l59 -91
-77 -211 c-103 -286 -106 -298 -106 -403 0 -182 100 -384 189 -384 28 0 30 4
46 111 47 298 48 314 42 465 -5 133 -11 184 -32 302 -4 17 -3 32 0 32 4 0 31
-38 61 -84 51 -78 55 -88 55 -143 0 -33 -9 -104 -21 -159 -55 -257 1 -493 161
-688 45 -54 103 -96 116 -83 4 3 1 64 -5 134 -6 70 -16 205 -21 298 -12 201
-16 223 -47 294 -13 30 -21 56 -19 58 10 10 46 -60 75 -146 18 -52 46 -119 63
-150 77 -142 93 -169 126 -215 77 -105 260 -264 368 -316 147 -73 155 -51 44
115 -25 39 -63 100 -83 137 -20 37 -80 128 -134 204 -107 149 -158 198 -314
301 -70 46 -112 82 -153 132 -31 39 -56 73 -56 76 0 11 39 -15 141 -97 107
-85 357 -251 397 -263 46 -13 20 16 -60 67 -204 131 -482 328 -474 335 9 9
143 -30 212 -62 83 -38 153 -84 319 -210 67 -50 153 -110 192 -134 51 -29 71
-46 67 -56 -8 -19 -25 -19 -71 0 -50 21 -66 20 -53 -4 5 -11 32 -27 60 -36 36
-12 50 -22 50 -35 0 -34 12 -51 53 -72 50 -25 127 -20 268 18 88 23 163 41
359 84 47 10 146 21 220 25 74 4 173 13 219 22 243 43 462 163 541 295 17 29
61 103 97 163 122 203 153 291 153 429 0 72 1 76 56 162 30 49 60 91 66 93 8
2 9 -29 4 -107 -5 -69 -3 -153 5 -225 16 -154 11 -175 -63 -254 -98 -105 -168
-275 -183 -448 -14 -147 36 -351 121 -497 57 -98 115 -158 202 -211 56 -34 71
-39 150 -44 97 -6 205 15 298 58 69 33 207 168 239 235 118 250 41 626 -177
855 -102 107 -245 188 -339 191 -30 1 -82 -2 -116 -7 l-62 -8 -12 29 c-14 37
-6 480 10 544 7 25 30 104 53 175 22 72 46 148 53 170 6 22 16 39 21 38 10 -2
10 -5 49 -252 28 -179 47 -243 101 -355 46 -93 79 -130 186 -203 48 -32 125
-95 172 -140 83 -79 88 -82 213 -128 159 -58 330 -105 491 -135 114 -21 127
-26 195 -71 95 -65 122 -64 157 6 47 95 35 296 -31 502 -39 123 -82 209 -172
344 -62 94 -80 113 -154 165 -226 159 -414 229 -738 275 -125 18 -147 24 -212
60 l-73 40 -106 -3 -107 -3 -15 -50 c-92 -299 -152 -441 -256 -613 -46 -75
-55 -84 -101 -101 -135 -50 -175 -54 -420 -45 -432 17 -521 8 -671 -65 -44
-21 -124 -72 -179 -113 -167 -125 -372 -377 -479 -589 l-63 -126 -44 23 c-54
28 -160 101 -311 216 -63 47 -143 102 -178 121 -82 45 -207 87 -258 87 -22 0
-48 3 -56 6 -14 5 -126 174 -126 189 0 14 41 1 100 -30 276 -147 476 -236 658
-291 125 -38 173 -42 193 -18 11 14 10 19 -11 36 -14 11 -56 36 -95 55 -38 20
-95 52 -125 73 -104 70 -205 127 -280 157 -90 37 -298 83 -378 83 -95 0 -125
13 -165 73 -20 28 -50 72 -66 96 -17 24 -31 50 -31 57 0 20 150 -36 309 -116
77 -38 181 -87 233 -108 166 -69 391 -132 472 -132 35 0 66 24 50 40 -5 4 -70
35 -145 67 -74 33 -173 82 -220 110 -272 162 -442 217 -662 212 -43 -1 -80 0
-83 3 -11 12 -104 193 -104 204 0 7 34 -7 78 -31 74 -43 283 -135 304 -135 5
0 69 -25 142 -56 153 -66 186 -77 186 -63 0 6 14 8 33 5 17 -3 -32 16 -110 43
-79 27 -187 68 -240 90 -128 52 -390 178 -398 191 -8 14 89 13 157 -1 106 -21
233 -71 446 -175 119 -59 257 -121 306 -139 48 -19 90 -36 93 -39 11 -11 -10
-26 -29 -20 -11 3 -48 7 -82 9 -33 1 -77 6 -96 9 -32 6 -33 6 -10 -5 37 -16
218 -48 241 -42 14 4 19 13 17 27 -3 23 -81 66 -173 98 -28 9 -122 58 -210
109 -88 50 -194 107 -236 125 -111 49 -256 82 -367 83 -51 0 -97 3 -102 6 -11
7 -121 227 -116 232 5 6 136 -61 280 -141 128 -72 202 -106 346 -160 445 -166
452 -168 465 -146 10 17 -9 34 -128 114 -148 98 -509 288 -632 332 -89 31
-229 60 -330 66 -37 3 -42 7 -68 56 -22 41 -33 52 -53 52 l-24 0 21 -41z
m3958 10 c31 -19 33 -23 27 -57 -18 -97 -18 -119 9 -217 15 -55 41 -124 58
-153 37 -61 196 -222 221 -222 31 0 15 24 -78 114 -51 50 -103 110 -114 132
-24 47 -62 177 -62 211 0 33 17 28 36 -9 9 -18 30 -48 45 -66 16 -18 29 -36
29 -41 0 -11 119 -125 195 -188 112 -92 214 -152 258 -153 31 0 10 16 -75 59
-46 22 -110 62 -143 88 -88 70 -212 199 -256 267 -39 59 -78 160 -67 172 4 3
44 -11 90 -31 74 -33 232 -93 343 -131 22 -8 107 -23 190 -33 134 -18 158 -24
231 -60 251 -125 414 -414 417 -741 1 -127 -13 -176 -64 -213 l-26 -19 -84 42
c-133 67 -233 104 -389 145 -80 21 -170 49 -200 62 -104 45 -345 182 -372 210
-14 15 -46 64 -72 108 -100 174 -153 337 -181 549 -8 66 -18 137 -21 158 -8
45 4 49 55 17z m-3574 -141 c134 -45 367 -161 616 -308 129 -76 159 -97 159
-112 0 -13 -38 -1 -235 69 -222 80 -281 107 -392 176 -97 60 -307 168 -365
188 -21 7 -38 17 -38 22 0 18 165 -5 255 -35z m4130 -9 c162 -35 225 -73 95
-57 -84 10 -212 49 -218 66 -5 17 13 15 123 -9z m-4450 -134 c0 -96 -4 -120
-29 -193 -16 -45 -30 -81 -32 -80 -1 2 9 46 22 98 21 80 25 113 22 207 -2 75
0 106 6 95 6 -9 10 -66 11 -127z m-25 14 c0 -59 -11 -115 -50 -262 -27 -103
-61 -215 -74 -249 -14 -35 -41 -108 -61 -163 -69 -188 -86 -205 -117 -125 -45
119 2 350 117 570 31 58 81 156 111 219 64 129 74 130 74 10z m530 -160 c30
-10 44 -17 30 -15 -45 8 -141 33 -147 40 -10 9 55 -4 117 -25z m-354 -75 c13
-52 -5 -192 -37 -282 -17 -48 -57 -162 -89 -253 -60 -174 -75 -209 -89 -209
-15 0 -21 42 -21 150 0 161 17 219 122 433 51 103 96 187 100 187 4 0 11 -12
14 -26z m544 1 c28 -14 50 -27 50 -30 0 -5 -110 42 -119 50 -13 13 25 2 69
-20z m-134 -195 c174 -32 329 -98 609 -260 44 -25 105 -59 135 -74 30 -16 59
-33 65 -37 29 -27 -144 10 -312 67 -59 20 -202 83 -317 141 -116 58 -233 114
-260 125 -109 43 -106 41 -66 48 19 4 35 8 36 9 0 0 50 -8 110 -19z m-240
-117 c9 -92 -11 -229 -56 -369 -21 -67 -48 -164 -60 -215 -43 -181 -49 -204
-60 -234 -11 -28 -12 -29 -25 -11 -26 35 -38 126 -32 247 8 164 46 308 121
456 18 38 36 77 39 88 3 11 13 47 23 79 15 53 18 58 30 42 7 -10 16 -47 20
-83z m2308 1 c32 -12 14 -22 -56 -33 -176 -28 -270 -63 -378 -144 -68 -51
-172 -152 -239 -234 -63 -77 -269 -297 -283 -302 -5 -2 14 34 42 80 196 315
428 528 658 603 89 30 218 45 256 30z m-2405 -53 c-6 -17 -17 -35 -25 -42 -13
-11 -14 -9 -3 17 24 54 45 73 28 25z m3121 15 c0 -33 -32 -49 -83 -42 -78 9
-78 20 0 41 64 18 83 18 83 1z m-474 -24 c6 -4 13 -15 17 -24 5 -14 18 -18 59
-18 29 -1 64 -7 78 -15 17 -10 57 -14 120 -15 119 0 140 -6 140 -35 0 -32 -62
-122 -118 -172 -47 -42 -43 -61 5 -23 32 25 37 21 23 -15 -17 -45 -91 -107
-285 -240 -80 -55 -156 -78 -262 -79 -50 -1 -95 -4 -99 -8 -15 -16 53 -30 121
-25 97 8 186 41 262 98 35 27 76 55 91 63 15 8 62 44 105 81 43 37 80 65 84
62 15 -16 -52 -124 -119 -191 -161 -160 -312 -213 -703 -246 -255 -21 -402
-41 -545 -72 -80 -17 -170 -31 -200 -32 l-55 -1 3 40 c4 47 73 145 187 265 39
41 102 111 140 155 216 252 376 380 516 415 127 32 405 53 435 32z m-2783 -94
c-41 -135 -105 -287 -126 -300 -25 -16 -30 -7 -9 15 12 13 44 86 71 163 71
201 72 204 81 204 5 0 -3 -37 -17 -82z m622 -32 c199 -22 318 -67 549 -210 56
-34 126 -74 156 -88 30 -14 64 -33 75 -42 19 -15 19 -15 -16 -16 -20 0 -90 14
-155 31 -127 33 -273 96 -410 179 -64 39 -228 112 -344 153 -26 9 6 8 145 -7z
m3727 -60 c51 -24 148 -57 215 -74 126 -32 223 -68 223 -83 0 -13 -10 -12
-135 21 -202 53 -311 94 -377 143 -24 18 -37 37 -24 37 2 0 46 -20 98 -44z
m-3927 -59 c18 -78 20 -353 4 -531 -9 -98 -34 -238 -50 -275 -9 -22 -11 -23
-28 -7 -50 45 -101 222 -103 357 -1 78 32 207 88 341 13 31 28 78 34 105 19
89 21 94 30 88 4 -3 16 -38 25 -78z m3200 -6 c87 -39 188 -147 200 -214 7 -37
28 -50 38 -23 14 35 -25 115 -82 171 -47 45 -50 55 -18 55 41 0 125 -57 147
-99 11 -22 29 -42 39 -46 58 -18 95 -110 106 -260 12 -158 39 -135 40 32 0 57
2 103 5 103 12 -1 38 -50 58 -106 18 -54 20 -70 11 -125 -13 -87 -45 -184 -80
-246 -16 -29 -25 -53 -21 -53 16 0 50 45 81 108 41 81 56 81 47 0 -10 -83 -58
-232 -94 -288 -80 -126 -246 -205 -334 -159 -105 55 -196 146 -263 264 l-28
50 31 -29 c18 -17 41 -48 52 -71 26 -54 64 -90 86 -81 18 7 26 -4 -96 143 -86
104 -110 149 -118 225 -13 110 30 271 101 381 58 90 97 164 97 186 0 46 -69
15 -160 -73 l-62 -59 7 34 c20 95 98 199 148 199 12 0 40 -9 62 -19z m1603
-95 c-7 -121 -39 -170 -82 -127 -20 20 -20 20 11 83 17 35 36 80 42 101 20 61
34 34 29 -57z m-5032 -28 c-18 -78 -44 -157 -58 -172 -14 -17 -9 9 16 91 14
43 30 98 36 122 19 71 23 38 6 -41z m3905 -73 c28 -45 24 -64 -7 -34 -34 32
-84 109 -84 128 1 18 60 -43 91 -94z m-563 8 c-59 -89 -75 -121 -114 -223 -17
-46 -37 -86 -43 -88 -17 -6 -15 133 3 147 8 7 31 46 52 88 44 89 118 173 136
155 9 -9 0 -28 -34 -79z m-2902 -35 c8 -16 30 -79 50 -140 28 -92 37 -139 45
-252 5 -76 19 -188 29 -250 35 -193 34 -186 19 -186 -22 0 -91 96 -132 181
-20 42 -50 126 -68 188 -35 126 -35 162 -1 321 12 52 21 118 22 145 0 52 4 52
36 -7z m-380 -65 c-26 -75 -30 -166 -12 -272 9 -52 14 -96 12 -98 -13 -14 -40
120 -39 197 0 80 36 241 50 226 3 -2 -2 -27 -11 -53z m472 -72 c27 -60 39
-142 46 -306 8 -175 -12 -131 -24 54 -8 124 -38 267 -66 314 -6 9 -4 9 8 -1 9
-7 25 -34 36 -61z m2599 -68 c0 -137 16 -233 57 -345 29 -79 188 -294 257
-346 51 -39 58 -59 18 -53 -80 11 -228 155 -289 279 -72 146 -105 341 -81 478
19 106 21 114 30 114 5 0 9 -57 8 -127z m-2434 -2 c142 -118 203 -193 373
-451 59 -91 123 -184 142 -208 19 -23 32 -45 29 -48 -9 -9 -78 40 -153 107
-39 35 -109 99 -156 141 -47 42 -101 101 -121 130 -31 48 -207 381 -207 393 0
12 16 1 93 -64z m199 -156 c9 -16 6 -16 -17 5 -15 14 -36 39 -48 55 -20 29
-19 29 17 -5 21 -19 42 -44 48 -55z m-107 -162 c57 -87 57 -88 203 -217 125
-111 156 -152 60 -79 -134 102 -248 225 -297 321 -32 62 -17 51 34 -25z m3275
16 c0 -70 -48 -204 -95 -263 -29 -37 -28 -6 2 51 17 32 41 100 53 151 22 92
40 119 40 61z m-2990 -101 c12 -21 19 -38 16 -38 -7 0 -76 105 -76 116 1 12
34 -32 60 -78z m-493 10 c-3 -8 -6 -5 -6 6 -1 11 2 17 5 13 3 -3 4 -12 1 -19z"/>
<path d="M7806 9485 c-79 -80 -130 -142 -139 -167 -10 -30 11 -30 30 -1 9 15
40 53 67 83 99 109 117 131 113 143 -2 6 -34 -20 -71 -58z"/>
<path d="M9233 9287 c-36 -41 -62 -117 -72 -208 -20 -190 77 -356 253 -434 74
-33 77 -10 4 30 -83 45 -197 162 -182 186 7 11 41 -6 77 -39 44 -41 31 -12
-20 43 -88 96 -112 200 -73 315 12 36 30 79 40 97 26 44 8 50 -27 10z"/>
<path d="M5796 10777 c22 -13 69 -43 103 -66 75 -51 142 -82 311 -144 163 -60
246 -80 271 -64 25 15 24 32 -3 70 -28 40 -29 41 -163 130 -117 78 -155 101
-155 93 0 -3 48 -38 108 -77 122 -82 154 -108 146 -121 -3 -5 2 -16 12 -23 32
-24 -1 -17 -149 31 -237 78 -308 104 -402 150 -94 46 -149 60 -79 21z m655
-237 c10 0 19 -4 19 -10 0 -29 -109 -1 -320 81 -208 81 -180 82 59 3 123 -41
232 -74 242 -74z"/>
<path d="M6128 10769 c29 -17 55 -29 58 -26 7 7 -79 57 -97 57 -8 0 10 -14 39
-31z"/>
<path d="M6890 10785 c0 -49 186 -362 239 -402 27 -21 50 -15 57 15 3 15 7 32
9 39 2 7 7 52 10 100 7 103 13 173 22 228 4 27 2 37 -5 30 -15 -15 -52 -209
-53 -284 -1 -36 -4 -79 -8 -95 l-6 -29 -32 36 c-41 47 -159 246 -189 317 -22
54 -44 77 -44 45z"/>
<path d="M7364 10783 c3 -10 10 -38 16 -62 32 -122 97 -220 244 -366 100 -99
178 -150 295 -191 42 -15 103 -38 137 -50 33 -13 82 -24 109 -24 l48 0 -6 39
c-6 46 -37 114 -107 235 -27 48 -50 90 -50 94 0 3 -25 50 -56 104 -44 78 -68
108 -117 148 -64 52 -148 91 -195 89 -21 0 -16 -4 25 -19 127 -45 205 -135
325 -374 33 -66 80 -152 104 -192 44 -73 52 -98 35 -109 -37 -22 -453 211
-605 340 -28 24 -92 114 -107 150 -20 49 -58 185 -52 185 3 0 32 -20 64 -45
33 -25 67 -45 77 -45 28 0 143 -58 192 -98 25 -20 66 -58 93 -86 26 -27 47
-45 47 -39 0 14 -117 129 -167 164 -22 16 -74 44 -115 62 -40 19 -97 51 -127
71 -58 40 -116 50 -107 19z m567 -146 c12 -22 12 -22 -10 -3 -11 11 -21 23
-21 28 0 14 19 -1 31 -25z m68 -117 c11 -24 11 -24 -3 -6 -9 11 -16 24 -16 30
0 12 5 7 19 -24z m91 -165 c34 -66 55 -113 47 -105 -17 16 -100 169 -118 217
-20 53 8 8 71 -112z m-356 -53 c34 -21 98 -59 144 -83 45 -24 78 -45 73 -47
-19 -6 -176 75 -235 122 -72 56 -65 59 18 8z"/>
<path d="M10821 10726 c-92 -137 -137 -229 -132 -272 2 -18 46 -25 88 -15 232
60 327 96 425 162 73 49 215 185 205 196 -4 3 -20 -5 -35 -19 -97 -91 -488
-295 -619 -323 -31 -6 -33 -5 -33 20 0 15 14 44 31 66 28 35 159 245 159 255
0 14 -19 0 -29 -22 -6 -15 -14 -24 -17 -21 -3 3 -1 15 6 26 23 45 -1 18 -49
-53z m-2 -55 c-24 -39 -47 -71 -51 -71 -4 0 13 34 39 75 25 41 48 73 50 71 2
-2 -15 -36 -38 -75z m386 -47 c-28 -20 -68 -45 -89 -56 -49 -25 -162 -68 -179
-68 -12 1 290 156 308 159 5 0 -13 -15 -40 -35z"/>
<path d="M11716 10753 c10 -86 13 -93 38 -93 17 0 37 16 67 53 24 28 49 60 57
70 13 15 13 17 0 17 -8 0 -36 -27 -61 -60 -26 -33 -51 -60 -57 -60 -6 0 -10
27 -10 60 0 53 -2 60 -20 60 -18 0 -19 -5 -14 -47z"/>
<path d="M12145 10768 c-158 -98 -186 -120 -210 -158 -25 -40 -26 -42 -8 -56
13 -11 33 -13 73 -9 58 6 355 102 430 140 84 41 205 115 188 115 -9 0 -62 -18
-119 -41 -57 -22 -160 -57 -229 -76 -69 -19 -157 -46 -197 -59 -39 -13 -80
-24 -90 -24 -17 1 -17 2 2 16 11 8 20 21 20 29 0 8 49 47 109 85 61 39 103 70
95 69 -8 0 -36 -14 -64 -31z m245 -77 c-56 -29 -331 -119 -388 -127 -58 -7
-74 10 -19 21 40 8 327 91 382 110 56 19 67 18 25 -4z"/>
<path d="M12250 10790 c-8 -5 -12 -11 -9 -14 3 -3 14 1 25 9 21 16 8 20 -16 5z"/>
<path d="M12855 10775 c-8 -14 -21 -36 -29 -48 -14 -22 -22 -24 -138 -30 -109
-5 -139 -11 -244 -45 -244 -81 -774 -364 -774 -414 0 -28 18 -24 306 71 297
98 356 122 552 221 174 88 252 123 251 112 0 -4 -28 -56 -62 -117 l-62 -110
-135 -6 c-214 -10 -312 -41 -579 -184 -87 -46 -195 -96 -242 -111 -84 -28
-159 -67 -159 -83 0 -5 7 -14 16 -21 12 -11 36 -10 129 3 63 9 123 21 132 27
15 9 11 10 -17 5 -56 -11 -209 -14 -215 -5 -5 8 30 23 128 55 26 9 154 63 284
121 289 128 368 153 542 169 47 4 71 3 71 -4 0 -13 -36 -36 -70 -46 -14 -4
-72 -29 -130 -55 -143 -65 -320 -130 -465 -169 -122 -34 -155 -47 -98 -39 18
2 30 1 27 -4 -11 -17 29 -6 184 52 89 33 166 60 172 60 20 0 186 68 278 113
51 26 92 42 92 37 0 -13 -101 -190 -113 -197 -5 -3 -75 -6 -155 -8 -212 -4
-289 -28 -602 -187 -102 -52 -222 -107 -268 -123 -92 -32 -111 -47 -92 -70 17
-20 58 -19 178 5 180 36 346 91 522 173 214 99 370 155 370 133 0 -15 -135
-198 -153 -207 -7 -4 -57 -9 -112 -12 -260 -14 -416 -63 -644 -201 -49 -30
-129 -73 -176 -96 -47 -23 -89 -48 -92 -57 -11 -27 26 -44 77 -37 150 22 557
171 727 267 61 35 153 70 161 63 7 -8 -106 -174 -125 -184 -10 -5 -48 -12 -84
-15 -36 -3 -102 -19 -147 -36 -110 -40 -150 -64 -430 -262 -20 -15 -80 -50
-132 -79 -116 -64 -138 -83 -121 -104 29 -34 128 -28 173 12 28 24 11 32 -34
16 -46 -16 -108 -19 -108 -5 0 5 37 30 83 55 45 24 111 65 147 90 199 139 308
207 374 235 75 31 200 65 218 59 13 -5 -334 -236 -459 -308 -104 -59 -138 -88
-88 -76 54 13 263 142 464 286 46 33 86 58 89 55 12 -12 -126 -149 -187 -184
-69 -41 -187 -124 -232 -163 -34 -29 -240 -302 -264 -348 -10 -19 -49 -79 -86
-133 -38 -53 -72 -109 -75 -124 -7 -25 -6 -26 31 -20 94 15 250 117 396 259
58 57 94 105 157 211 45 75 97 178 116 227 33 89 63 146 72 137 2 -2 -6 -28
-20 -58 -31 -72 -33 -82 -56 -319 -11 -113 -25 -244 -31 -292 -6 -49 -8 -95
-5 -103 9 -24 53 3 119 75 160 172 232 442 182 678 -8 40 -15 106 -15 145 0
71 1 73 56 152 68 96 63 90 70 82 3 -3 1 -21 -5 -39 -6 -18 -13 -51 -17 -73
-3 -22 -9 -59 -13 -82 -5 -23 -9 -79 -11 -125 -1 -46 -4 -107 -5 -136 -1 -29
2 -83 7 -120 4 -37 10 -89 13 -117 19 -204 22 -215 58 -215 45 0 83 36 128
124 44 84 59 130 70 216 14 111 7 138 -143 597 l-20 62 53 76 c30 42 59 83 65
92 8 12 11 -18 12 -123 0 -165 21 -316 63 -457 17 -56 44 -149 60 -206 30
-109 47 -138 73 -128 53 21 84 294 56 497 -14 103 -56 236 -121 389 -27 62
-49 125 -49 139 0 14 19 57 43 96 l42 71 7 -122 c14 -230 122 -599 195 -666
19 -16 20 -16 36 1 9 10 23 35 32 55 19 46 32 191 18 200 -6 4 -10 -22 -11
-68 0 -41 -6 -82 -12 -92 -11 -17 -11 -17 -6 0 3 10 6 57 6 103 0 54 4 83 10
79 37 -23 -36 208 -126 397 -41 87 -77 171 -80 187 -5 24 6 52 50 135 32 58
59 106 61 106 2 0 1 -44 -2 -97 -5 -85 -2 -111 20 -193 15 -52 38 -124 53
-160 14 -36 56 -150 91 -255 87 -254 87 -255 116 -255 55 0 86 76 86 210 1
163 -63 377 -180 598 -129 244 -135 263 -100 325 l21 37 -25 0 c-15 0 -30 -9
-40 -25z m-98 -106 c-9 -6 -41 -18 -70 -28 -69 -25 -267 -120 -342 -166 -71
-44 -183 -90 -338 -141 -194 -63 -269 -84 -279 -78 -18 12 76 67 343 203 335
170 472 219 614 220 66 0 85 -2 72 -10z m94 -70 c-16 -69 -12 -176 9 -273 11
-49 18 -91 16 -93 -1 -2 -13 32 -26 74 -27 91 -33 259 -10 312 17 43 23 33 11
-20z m43 -25 c4 -14 42 -99 86 -188 43 -90 90 -193 105 -231 34 -90 65 -248
65 -328 0 -71 -25 -163 -46 -171 -22 -9 -38 27 -108 239 -100 306 -151 537
-140 640 4 33 9 63 11 68 7 12 20 -1 27 -29z m-456 -180 c-9 -8 -160 -45 -166
-40 -4 5 35 16 113 35 50 11 60 12 53 5z m-262 -81 c-44 -23 -96 -44 -96 -38
0 7 101 55 115 55 6 -1 -3 -8 -19 -17z m548 -75 c18 -40 50 -109 70 -153 20
-44 41 -89 46 -100 37 -77 59 -247 46 -366 -14 -130 -36 -115 -86 56 -18 60
-52 169 -76 240 -47 141 -69 264 -60 333 11 82 18 81 60 -10z m-301 -139 c-4
-4 -44 -21 -88 -37 -44 -17 -125 -51 -180 -77 -281 -132 -331 -151 -526 -200
-131 -34 -200 -43 -198 -27 0 4 121 66 267 139 313 155 450 202 622 215 53 4
113 -3 103 -13z m127 -109 c6 -35 22 -85 35 -110 61 -121 106 -291 119 -443
10 -117 -22 -307 -52 -307 -11 0 -33 82 -61 235 -11 61 -37 166 -57 235 -20
69 -39 163 -43 210 -12 130 12 283 39 253 4 -4 13 -37 20 -73z m59 -88 c5 -18
8 -32 6 -32 -7 0 -35 58 -35 72 0 21 20 -5 29 -40z m171 -221 c21 -68 48 -137
59 -152 21 -28 18 -37 -5 -21 -24 17 -119 282 -128 360 l-6 47 21 -55 c11 -30
38 -111 59 -179z m-534 130 c-3 -5 -18 -12 -33 -16 -73 -17 -254 -91 -322
-130 -141 -82 -268 -131 -419 -164 -79 -17 -152 -31 -162 -31 -32 0 -23 15 23
37 111 54 152 76 281 146 207 113 309 141 566 160 25 2 51 4 58 5 7 1 11 -2 8
-7z m146 -306 c61 -187 63 -198 61 -277 -5 -168 -98 -409 -142 -363 -23 25
-42 243 -42 475 1 247 8 316 37 390 l18 45 16 -80 c9 -44 33 -129 52 -190z
m152 -6 c30 -113 32 -186 4 -89 -21 70 -48 215 -39 203 4 -4 20 -56 35 -114z
m-414 -219 c25 -124 24 -151 -8 -258 -41 -137 -110 -275 -171 -342 -27 -30
-52 -52 -57 -48 -4 5 5 62 19 128 15 66 34 177 42 248 28 229 45 294 118 442
l32 65 7 -90 c4 -49 12 -115 18 -145z m344 47 c21 -99 11 -205 -26 -300 -19
-49 -18 -23 2 69 22 99 25 188 9 249 -18 70 -21 92 -11 75 6 -8 17 -50 26 -93z
m-482 -24 c-33 -96 -39 -124 -46 -223 -6 -75 -23 -171 -32 -179 -15 -15 16
286 38 359 12 41 61 141 66 135 3 -2 -9 -44 -26 -92z m-105 -16 c-14 -23 -40
-69 -57 -102 -83 -155 -106 -193 -141 -240 -41 -55 -106 -119 -189 -185 -30
-25 -79 -66 -108 -92 -97 -87 -197 -131 -125 -55 17 17 68 86 114 152 128 186
225 309 308 390 74 72 198 172 214 174 5 1 -2 -18 -16 -42z m-237 -142 c-24
-24 -46 -42 -49 -40 -5 6 76 85 87 85 3 0 -14 -20 -38 -45z m103 -152 c-14
-38 -84 -131 -140 -184 -93 -89 -243 -203 -243 -185 0 3 65 60 144 126 108 90
155 137 191 190 48 72 59 83 48 53z m-273 -51 c0 -5 -18 -33 -40 -62 -50 -67
-53 -54 -4 17 36 53 44 61 44 45z m431 -98 c-5 -16 -10 -21 -10 -12 -1 18 10
51 15 45 2 -1 -1 -16 -5 -33z"/>
<path d="M12970 10789 c0 -5 7 -42 16 -81 18 -77 43 -143 122 -313 27 -60 74
-166 102 -235 72 -172 89 -187 139 -115 20 29 23 46 22 112 0 98 -12 157 -50
262 -53 144 -191 381 -223 381 -10 0 -18 -4 -18 -9 0 -5 34 -61 76 -123 148
-220 179 -310 171 -493 -4 -112 -12 -148 -29 -143 -31 11 -278 671 -278 743 0
14 -5 25 -11 25 -16 0 -4 -55 37 -174 18 -55 32 -102 29 -104 -2 -3 -9 6 -14
19 -5 13 -18 47 -30 76 -11 28 -25 81 -32 117 -6 36 -15 66 -20 66 -5 0 -9 -5
-9 -11z m381 -696 c-9 -16 -10 -15 -11 8 0 15 3 42 8 60 l7 34 3 -42 c2 -24
-1 -51 -7 -60z"/>
<path d="M13226 10788 c4 -7 29 -45 55 -85 52 -77 137 -215 202 -328 46 -81
65 -105 82 -105 36 0 46 128 19 258 -22 107 -74 263 -91 269 -25 10 -24 -3 1
-62 50 -112 78 -217 83 -315 5 -77 3 -98 -9 -108 -21 -17 -24 -12 -107 153
-86 173 -175 328 -190 333 -6 2 5 -27 26 -64 45 -82 29 -77 -22 6 -20 33 -41
60 -46 60 -6 0 -7 -6 -3 -12z"/>
<path d="M13600 10793 c1 -22 100 -188 114 -191 11 -2 21 8 31 32 l15 36 83 0
c88 1 146 5 297 21 165 17 251 38 335 82 l50 26 -66 1 c-36 0 -69 -4 -75 -9
-21 -21 -193 -64 -288 -72 -101 -9 -206 -4 -206 11 0 5 21 21 48 37 l47 28
-53 3 c-44 3 -63 -2 -108 -27 -57 -33 -65 -36 -63 -23 5 32 -3 52 -21 52 -16
0 -20 -7 -20 -38 0 -36 -19 -92 -31 -92 -3 0 -21 29 -40 65 -30 57 -49 80 -49
58z m140 -131 c0 -5 -6 -17 -14 -28 -14 -18 -15 -18 -22 0 -4 11 -2 21 7 27
18 11 29 11 29 1z"/>
<path d="M15282 10772 c-15 -15 -42 -45 -59 -65 l-32 -37 -93 16 c-182 32
-348 15 -477 -51 -64 -32 -195 -132 -247 -186 -22 -24 -60 -61 -83 -82 -26
-23 -40 -44 -37 -53 6 -16 55 -18 106 -4 19 5 68 13 110 16 175 15 341 83 495
203 94 74 170 119 181 108 3 -3 -40 -66 -97 -139 -57 -73 -116 -149 -130 -168
-37 -50 -208 -337 -261 -439 l-23 -43 -47 5 c-52 7 -106 31 -191 89 -32 22
-102 58 -155 81 -96 41 -98 41 -211 39 -92 -2 -123 -6 -156 -22 -50 -24 -79
-54 -72 -73 3 -8 38 -31 78 -51 40 -21 119 -71 176 -112 131 -96 161 -107 293
-108 96 -1 111 2 168 28 34 16 65 26 69 22 4 -4 -24 -68 -63 -142 -66 -129
-73 -139 -150 -205 -98 -83 -132 -141 -196 -335 l-43 -129 3 -210 c2 -115 5
-211 8 -214 8 -8 74 61 129 134 64 86 106 167 147 288 32 91 32 95 33 282 l0
190 70 139 c39 77 75 141 81 143 7 2 15 -12 18 -30 10 -53 54 -156 84 -196 15
-20 69 -90 121 -156 52 -66 106 -141 120 -167 14 -26 31 -48 37 -48 27 0 51
135 35 198 -5 20 -12 60 -14 87 -7 61 -23 107 -55 160 -27 44 -147 204 -186
248 -13 15 -31 50 -40 76 -15 46 -15 52 2 88 28 62 200 345 233 383 l30 35 -8
-60 c-4 -33 -8 -114 -7 -180 l0 -120 48 -95 c26 -52 54 -120 62 -150 31 -109
60 -99 114 41 30 79 32 90 27 179 -3 61 -16 138 -37 215 -85 318 -79 345 114
553 42 45 46 52 27 52 -12 0 -34 -13 -49 -28z m-244 -110 c8 -6 -26 -25 -97
-56 -98 -43 -159 -81 -148 -92 2 -2 44 16 92 41 111 56 148 60 90 9 -89 -77
-272 -174 -355 -187 l-35 -6 23 17 c13 9 55 35 94 57 66 37 95 65 68 65 -6 0
-57 -27 -113 -60 -56 -34 -124 -67 -152 -75 -63 -17 -147 -23 -151 -10 -7 26
319 257 391 276 90 25 266 37 293 21z m115 -427 c38 -127 42 -150 42 -250 0
-92 -4 -120 -24 -173 -13 -34 -29 -61 -34 -59 -6 2 -16 33 -22 69 -6 35 -22
88 -37 116 -47 90 -71 196 -63 281 6 75 30 151 61 199 l18 27 9 -35 c5 -19 27
-98 50 -175z m-1218 -214 c-16 -14 -55 -23 -55 -13 0 12 17 20 45 21 11 1 15
-3 10 -8z m344 -57 c52 -25 111 -58 131 -73 20 -14 64 -39 98 -55 35 -17 61
-35 59 -40 -6 -18 -139 -55 -198 -55 -59 -1 -187 27 -229 49 -21 11 -207 147
-234 171 -5 5 3 13 20 19 139 53 220 50 353 -16z m456 -211 c25 -43 78 -121
116 -173 101 -136 121 -180 127 -271 3 -47 0 -84 -7 -98 -11 -20 -16 -16 -89
79 -200 262 -223 307 -224 420 -1 57 13 120 26 120 3 0 25 -35 51 -77z m-356
-449 c-6 -27 -14 -143 -18 -259 -6 -196 -8 -213 -31 -260 -25 -49 -134 -175
-143 -165 -5 5 33 242 63 395 20 101 57 207 96 277 21 37 39 66 41 64 2 -2 -1
-25 -8 -52z m54 -90 c9 -140 -14 -294 -43 -294 -15 0 -1 324 16 383 12 40 21
10 27 -89z m-125 44 c-36 -55 -94 -273 -123 -466 -4 -23 -11 -40 -16 -36 -14
8 -10 122 6 187 8 31 21 81 28 110 23 91 89 227 109 227 6 0 4 -10 -4 -22z"/>
<path d="M15535 10788 c-53 -159 -56 -178 -53 -393 3 -207 10 -246 35 -193 6
13 46 70 89 128 55 73 85 124 98 165 38 120 54 159 64 163 6 2 25 -21 41 -50
17 -29 55 -82 86 -116 30 -35 62 -77 70 -92 16 -31 51 -60 73 -60 19 0 42 63
41 112 l-1 43 -11 -42 c-20 -72 -35 -72 -25 -1 5 35 14 66 22 70 19 10 13 31
-42 165 -41 99 -50 113 -71 113 -23 0 -23 0 -5 -27 63 -96 69 -114 72 -225 3
-61 0 -108 -5 -108 -5 0 -20 24 -35 53 -14 28 -55 87 -91 131 -36 43 -76 100
-89 127 -19 42 -27 49 -52 49 -25 0 -28 -3 -22 -22 19 -64 17 -85 -12 -158
-44 -109 -166 -320 -192 -328 -8 -3 -11 1 -7 10 3 8 8 57 12 109 5 87 5 92 -9
69 l-15 -25 -1 39 c0 51 21 166 31 166 5 0 6 -24 3 -52 -7 -73 10 -42 26 47 7
39 19 85 26 104 17 41 17 41 -1 41 -8 0 -17 -12 -21 -27 -9 -44 -14 -56 -20
-50 -3 3 -1 21 4 41 7 22 7 36 1 36 -5 0 -12 -6 -14 -12z m369 -227 c20 -27
36 -54 36 -60 0 -13 -83 78 -100 110 -21 39 25 3 64 -50z"/>
<path d="M17470 10743 c61 -109 172 -263 211 -294 21 -17 39 -34 39 -39 0 -4
-23 -17 -51 -29 -28 -13 -82 -52 -123 -90 -65 -60 -125 -96 -278 -169 -4 -2
-23 21 -42 51 -45 70 -103 118 -198 162 -126 58 -372 111 -373 80 0 -5 -4 -16
-8 -22 -12 -18 2 -36 22 -27 50 21 191 -16 333 -87 109 -55 133 -74 180 -141
21 -32 44 -58 49 -58 6 0 9 -6 6 -14 -3 -7 1 -23 9 -35 14 -20 14 -21 -13 -21
-31 0 -61 -15 -51 -25 4 -4 23 -13 44 -20 l37 -12 -52 -13 c-39 -9 -55 -9 -65
-1 -8 7 -16 8 -18 4 -6 -14 -112 -43 -135 -37 -13 4 -23 2 -23 -4 0 -14 -75
-4 -125 16 -61 25 -174 101 -198 134 -11 15 -53 53 -91 82 -118 91 -350 335
-333 352 6 7 77 -28 132 -66 104 -70 355 -213 408 -233 31 -12 18 8 -23 33
-22 14 -40 32 -40 41 0 10 -11 20 -26 23 -34 9 -154 85 -154 98 0 5 20 8 45 7
55 -4 65 5 28 25 -39 20 -422 156 -439 156 -23 0 -16 -34 15 -76 95 -130 418
-470 522 -550 143 -110 239 -123 422 -60 60 21 111 36 114 33 12 -12 -143 -79
-249 -107 -154 -42 -277 -86 -448 -161 -141 -62 -148 -67 -230 -149 -59 -59
-108 -122 -160 -205 -232 -372 -258 -403 -432 -507 -65 -38 -118 -73 -118 -78
0 -34 317 -19 450 21 36 11 126 33 200 50 176 39 276 72 380 125 151 78 225
162 383 436 74 128 93 175 122 285 33 124 114 283 146 283 17 0 9 -67 -21
-192 -17 -68 -33 -152 -36 -188 -12 -135 57 -335 190 -554 47 -76 94 -165 106
-197 26 -69 43 -87 65 -69 41 34 102 300 111 485 13 257 -36 409 -176 545 -42
41 -102 93 -133 115 -49 35 -74 62 -65 70 3 2 96 -11 283 -39 22 -3 94 -9 160
-12 104 -6 126 -4 158 11 32 15 39 25 53 74 25 91 49 145 98 216 44 65 56 95
37 95 -5 0 -15 -8 -22 -17 -23 -27 -155 -83 -258 -109 -103 -26 -141 -30 -126
-15 17 17 239 108 331 136 119 37 129 47 130 138 3 124 3 127 18 127 7 0 25
-15 40 -34 21 -28 36 -37 78 -45 115 -22 368 -22 368 -1 0 5 -71 10 -157 12
l-158 4 -91 47 c-97 50 -106 61 -119 138 -6 39 -27 65 -45 54 -7 -4 -5 -14 5
-28 19 -27 20 -148 3 -177 -11 -17 -10 -22 1 -29 11 -7 9 -10 -8 -16 -29 -9
-26 -30 9 -67 17 -17 30 -34 30 -38 0 -10 -20 -25 -43 -33 -15 -6 -16 -3 -7
13 16 31 11 47 -8 24 -13 -17 -31 -23 -75 -26 -32 -3 -63 -10 -69 -16 -7 -7 7
-9 51 -5 33 3 61 3 61 1 0 -3 -62 -32 -137 -64 -76 -31 -212 -93 -303 -137
-158 -75 -316 -147 -327 -147 -2 0 -2 8 1 18 3 9 2 42 -2 73 l-8 56 48 -5 c37
-4 53 0 68 13 11 10 20 15 20 10 0 -4 11 0 25 9 13 9 31 16 40 16 9 0 51 33
93 73 136 130 192 153 274 111 43 -21 23 -1 -38 39 -38 25 -50 40 -57 70 -6
24 -29 59 -62 95 -29 31 -74 91 -100 132 -58 92 -93 130 -118 130 -17 0 -16
-6 13 -57z m554 -585 c-4 -7 -25 -34 -46 -59 -23 -29 -38 -57 -38 -74 0 -46
-46 -81 -116 -89 -71 -8 -216 -1 -241 12 -34 17 -174 22 -210 7 -55 -23 -38
-9 52 45 170 100 179 103 290 106 55 1 114 7 130 14 35 15 154 49 173 49 8 1
10 -4 6 -11z m-886 -365 c-2 -5 -9 -19 -16 -33 -7 -14 -27 -71 -46 -127 -22
-64 -48 -121 -73 -155 -57 -77 -114 -192 -122 -246 -5 -41 -11 -50 -43 -67
-24 -13 -40 -29 -43 -46 -13 -60 -306 -236 -422 -255 -30 -4 -43 -3 -43 5 0
13 -51 4 -60 -10 -3 -5 -51 -18 -105 -29 -55 -11 -117 -29 -139 -40 -21 -10
-44 -16 -52 -13 -8 3 -29 -2 -47 -10 -17 -8 -52 -18 -76 -22 -35 -6 -42 -5
-36 6 19 34 40 49 67 49 32 0 120 41 101 47 -6 2 -27 -3 -47 -11 -23 -10 -36
-11 -36 -4 0 6 31 54 69 107 37 53 82 126 99 162 19 39 41 71 57 79 25 13 34
30 15 30 -5 0 -10 7 -10 15 0 8 6 15 13 15 7 0 22 10 34 23 69 72 113 126 113
141 0 23 104 123 146 141 19 8 37 21 40 30 4 9 19 15 39 15 23 0 37 7 48 23
19 29 34 35 216 86 80 22 157 49 173 61 34 25 38 25 38 -2 0 -44 -12 -67 -42
-79 -29 -12 -29 -13 -12 -26 16 -12 17 -15 4 -24 -8 -5 -34 -15 -57 -21 -35
-10 -43 -16 -43 -36 0 -35 -93 -120 -152 -139 -49 -16 -63 -33 -28 -33 29 0
25 -16 -7 -28 -16 -5 -59 -40 -98 -77 -38 -37 -84 -73 -100 -81 -17 -7 -61
-44 -98 -83 -36 -39 -85 -80 -107 -91 -23 -12 -43 -27 -46 -34 -3 -8 -23 -21
-44 -31 -36 -16 -61 -45 -39 -45 21 0 88 48 304 217 158 125 409 348 551 493
150 151 170 170 162 153z m296 -54 c31 -28 78 -79 104 -113 44 -56 47 -65 47
-118 0 -48 3 -58 17 -58 13 0 18 -13 23 -52 4 -29 5 -64 4 -78 -2 -14 0 -45 5
-70 4 -28 3 -76 -4 -120 -7 -41 -15 -102 -19 -135 -4 -33 -14 -73 -21 -90 -13
-29 -14 -28 -27 55 -19 117 -35 128 -31 22 2 -45 0 -82 -3 -82 -12 0 -199 287
-209 320 -7 24 -6 38 2 47 7 9 8 17 2 21 -45 33 -91 252 -65 315 8 18 14 43
16 56 1 22 35 49 80 64 5 2 2 13 -9 26 -17 19 -17 21 -3 21 10 0 17 5 17 10 0
20 19 9 74 -41z m-394 23 c0 -5 -11 -19 -26 -33 -22 -21 -24 -21 -18 -4 13 36
44 62 44 37z"/>
<path d="M16517 9420 c-61 -11 -67 -16 -27 -25 34 -8 110 3 110 15 0 7 -28 23
-33 19 -1 -1 -24 -5 -50 -9z"/>
<path d="M16707 9212 c-9 -21 -17 -47 -17 -57 0 -30 29 2 36 40 9 52 0 61 -19
17z"/>
<path d="M16590 8998 l-35 -30 32 16 c17 9 35 21 38 27 14 21 -1 16 -35 -13z"/>
<path d="M17352 9633 c1 -27 -1 -58 -5 -69 -6 -18 -4 -21 17 -21 13 0 37 -9
53 -20 89 -63 98 -45 18 34 -58 57 -64 79 -17 63 24 -9 22 -6 -13 25 -22 19
-43 35 -47 35 -4 0 -6 -21 -6 -47z"/>
<path d="M17420 9445 c-15 -40 -13 -48 23 -70 49 -30 49 -29 26 9 -17 29 -19
39 -9 50 9 12 7 17 -9 26 -18 9 -23 7 -31 -15z"/>
<path d="M17443 9315 c-3 -9 2 -24 11 -34 9 -10 16 -31 16 -47 0 -17 4 -34 9
-39 5 -6 11 -28 13 -49 4 -48 28 -62 28 -17 0 16 5 33 11 36 7 5 6 12 -4 23
-8 10 -17 37 -21 62 -10 62 -48 102 -63 65z"/>
<path d="M18030 10775 l23 -25 -21 0 c-12 0 -22 -4 -22 -10 0 -11 53 -14 63
-4 13 13 -23 64 -45 64 -21 0 -21 0 2 -25z"/>
<path d="M18170 10780 c64 -51 130 -92 141 -88 16 5 -124 108 -147 108 -17 0
-16 -3 6 -20z"/>
<path d="M18420 10774 c77 -36 175 -139 195 -206 30 -102 73 -138 162 -138 23
0 32 -5 36 -22 7 -27 1 -36 -15 -20 -28 28 -322 9 -512 -34 -92 -20 -108 -29
-104 -61 6 -52 27 -52 182 1 90 30 165 49 198 51 29 1 64 7 76 14 13 7 25 11
28 9 2 -2 -12 -30 -32 -61 -20 -32 -37 -73 -38 -92 -2 -19 -9 -41 -16 -50 -7
-8 -8 -15 -2 -15 13 0 42 45 42 65 0 38 81 155 108 155 5 0 13 -12 17 -27 7
-28 7 -28 18 -5 5 12 14 22 18 22 13 0 36 -89 80 -305 22 -110 58 -279 79
-375 32 -143 94 -462 115 -581 4 -26 2 -26 -63 -33 -69 -7 -192 -44 -192 -58
0 -4 42 -5 92 -1 l93 6 -43 -49 c-24 -26 -46 -61 -49 -76 -4 -19 -12 -28 -24
-28 -11 0 -19 -4 -19 -10 0 -5 -11 -10 -25 -10 -29 0 -33 -15 -7 -29 16 -9 15
-11 -5 -26 -12 -8 -45 -41 -75 -72 -122 -131 -184 -180 -214 -169 -21 8 -16
46 11 91 14 22 25 47 25 55 -1 19 -31 -15 -135 -150 -44 -58 -113 -140 -153
-182 -40 -43 -70 -82 -67 -88 35 -56 467 95 643 224 133 98 245 314 218 420
-10 39 -26 31 -26 -11 0 -47 -44 -143 -65 -143 -8 0 -15 -9 -15 -20 0 -72
-160 -259 -196 -229 -10 8 -17 3 -29 -20 -11 -23 -23 -31 -41 -31 -29 0 -104
-38 -104 -53 0 -5 -7 -6 -16 -3 -11 4 -18 -1 -21 -14 -4 -15 -14 -20 -38 -20
-17 0 -58 -9 -90 -20 -80 -28 -94 -26 -65 5 13 14 32 25 41 25 25 0 46 39 28
51 -11 7 -10 9 3 9 9 0 20 -5 24 -11 3 -6 14 2 25 20 10 17 24 31 30 31 7 0
33 17 58 37 74 61 398 382 454 451 28 34 54 59 58 55 14 -14 50 -197 50 -253
-1 -145 -2 -166 -11 -180 -7 -11 -10 -6 -10 20 -1 55 -17 16 -24 -60 -11 -103
-9 -400 3 -450 16 -70 50 -169 81 -235 l28 -60 1 88 c1 85 0 88 -20 85 -18 -3
-24 5 -37 52 -27 92 -14 360 20 423 7 13 6 23 -1 30 -14 14 -14 97 -1 132 7
18 15 25 25 21 30 -11 17 160 -16 227 -10 19 4 57 21 57 6 0 10 17 10 38 0 35
-3 40 -45 60 -58 28 -71 51 -85 147 -6 44 -30 176 -52 292 -23 117 -39 216
-35 219 12 12 63 -16 138 -76 73 -59 74 -59 77 -33 2 17 -2 30 -14 36 -9 5
-34 25 -56 45 -44 40 -38 51 26 45 l43 -4 2 86 c1 67 -2 85 -11 79 -7 -5 -58
-36 -112 -71 -55 -35 -103 -63 -107 -63 -8 0 -12 15 -34 149 -9 52 -34 180
-55 285 -22 105 -40 208 -40 228 0 51 32 83 102 102 78 22 88 41 18 33 l-53
-6 23 24 c13 14 21 28 17 31 -12 13 -68 -19 -84 -48 -21 -34 -113 -69 -140
-52 -9 5 -26 39 -38 74 -32 94 -58 140 -107 186 -69 66 -86 74 -153 74 l-60 0
55 -26z m-94 -453 c-6 -9 -84 -31 -111 -31 -9 0 -15 6 -13 13 3 6 29 15 59 18
30 3 58 6 62 7 5 1 6 -2 3 -7z"/>
<path d="M1095 10780 c-8 -12 43 -33 63 -25 11 4 12 8 2 20 -14 17 -56 20 -65
5z"/>
<path d="M17706 10756 c6 -14 46 -36 69 -36 27 0 25 19 -4 35 -38 19 -72 20
-65 1z"/>
<path d="M7645 10747 c28 -7 56 -28 96 -69 66 -68 86 -77 34 -14 -47 58 -104
96 -141 95 -27 -1 -26 -2 11 -12z"/>
<path d="M12077 10683 c-66 -42 -70 -58 -4 -20 36 22 79 58 66 57 -2 -1 -30
-17 -62 -37z"/>
<path d="M6284 10672 c11 -19 96 -74 107 -70 6 2 -11 17 -38 34 -71 46 -77 49
-69 36z"/>
<path d="M17870 10641 c0 -13 84 -81 100 -81 18 0 -30 50 -70 73 -16 10 -30
14 -30 8z"/>
<path d="M18425 10616 c45 -39 86 -59 97 -48 6 6 -11 20 -49 38 -81 39 -82 39
-48 10z"/>
<path d="M837 10543 c-11 -10 -8 -73 3 -73 6 0 10 18 10 40 0 41 -2 45 -13 33z"/>
<path d="M17999 10512 c13 -25 40 -46 48 -39 9 10 -26 57 -43 57 -11 0 -12 -4
-5 -18z"/>
<path d="M17920 10505 c-16 -19 9 -30 48 -20 26 6 26 7 8 21 -25 18 -40 18
-56 -1z"/>
<path d="M791 10398 c4 -35 11 -74 17 -88 8 -22 9 39 3 143 -1 4 -7 7 -14 7
-10 0 -11 -14 -6 -62z"/>
<path d="M725 10313 c4 -10 18 -49 31 -87 22 -64 42 -101 51 -93 5 5 -36 136
-53 170 -16 30 -41 39 -29 10z"/>
<path d="M18715 10288 c-2 -13 -10 -52 -16 -88 -6 -36 -17 -90 -25 -120 -8
-30 -14 -71 -14 -92 0 -20 -5 -60 -11 -88 -8 -39 -17 -54 -37 -64 -41 -21
-151 -41 -163 -29 -12 12 10 83 52 166 29 57 37 93 20 83 -5 -3 -18 -25 -29
-48 -11 -24 -35 -63 -53 -88 l-33 -45 -12 30 c-19 46 -27 146 -14 179 6 16 33
60 60 98 28 37 47 68 43 68 -8 0 -154 -139 -166 -158 -5 -8 -1 -30 11 -55 11
-24 25 -63 32 -87 6 -25 20 -60 31 -79 12 -21 16 -37 11 -45 -5 -6 -12 -27
-16 -47 -5 -28 -16 -43 -47 -65 -22 -15 -52 -41 -66 -58 -28 -33 -82 -76 -95
-76 -12 0 -10 62 3 99 9 24 9 35 0 44 -14 14 -14 80 0 94 13 13 8 55 -7 60
-16 5 -24 -30 -24 -105 0 -49 -5 -71 -25 -102 -14 -22 -25 -42 -25 -45 0 -3
11 2 25 11 24 16 25 16 25 -8 0 -13 -7 -33 -15 -45 -13 -19 -13 -22 1 -27 13
-5 14 -9 4 -21 -7 -8 -21 -15 -31 -15 -11 0 -28 -18 -45 -45 -14 -25 -32 -45
-40 -45 -17 0 -18 12 -2 28 7 7 8 15 1 24 -5 7 -17 34 -26 59 -14 37 -15 51
-6 78 9 25 9 42 -1 71 -9 27 -10 50 -4 77 13 52 7 83 -15 83 -51 0 -53 -199
-6 -393 l30 -119 -35 -31 c-92 -80 -207 -184 -227 -206 -48 -51 -20 -60 117
-37 125 21 179 41 162 58 -12 12 -89 3 -172 -18 -22 -6 -19 -2 15 28 22 20
218 125 445 240 488 247 605 311 605 329 0 8 -20 20 -45 28 -85 25 -93 33
-118 101 -26 71 -25 112 3 210 17 61 20 205 5 244 -12 32 -28 33 -35 4z m-58
-480 c-2 -17 5 -23 30 -29 36 -7 63 -25 63 -42 0 -6 12 -24 27 -39 l27 -28
-35 0 c-39 0 -64 -13 -55 -28 9 -14 -13 -28 -56 -36 -29 -5 -38 -12 -38 -26 0
-17 -7 -20 -42 -21 -24 0 -37 -3 -30 -6 21 -8 13 -23 -12 -23 -14 0 -27 -4
-30 -9 -6 -10 -63 -8 -73 3 -3 3 -36 6 -72 6 -76 0 -68 -13 19 -30 87 -17 89
-20 36 -40 -27 -11 -66 -31 -87 -46 -32 -22 -46 -26 -78 -20 -23 3 -42 2 -46
-4 -3 -5 1 -10 9 -10 9 0 16 -3 16 -8 0 -12 -155 -82 -181 -82 -29 0 -55 15
-41 24 5 3 13 21 16 39 8 42 78 121 199 225 140 120 172 140 279 173 55 17
111 42 126 55 33 29 32 29 29 2z"/>
<path d="M18132 10166 c-12 -41 -10 -52 6 -42 14 9 20 39 12 61 -6 17 -9 13
-18 -19z"/>
<path d="M16810 10157 c8 -8 38 -22 65 -32 64 -23 69 -28 54 -53 -16 -26 -5
-40 16 -22 9 7 32 16 51 19 l35 6 -50 33 c-27 17 -58 32 -68 32 -10 1 -29 7
-43 15 -14 8 -36 14 -50 15 -21 0 -22 -2 -10 -13z"/>
<path d="M1935 10092 c-11 -2 -31 -9 -45 -14 l-25 -10 33 -13 c18 -8 35 -21
38 -30 3 -8 12 -15 20 -15 17 0 18 12 3 27 -21 21 2 33 64 33 59 0 99 12 81
23 -11 6 -141 5 -169 -1z"/>
<path d="M18153 10093 c-7 -2 -13 -14 -13 -26 0 -12 -11 -46 -25 -74 -13 -29
-23 -53 -21 -53 10 0 66 99 66 116 0 11 5 25 12 32 12 12 3 15 -19 5z"/>
<path d="M0 9909 c0 -50 16 -109 31 -109 17 0 41 -65 41 -112 0 -26 3 -48 7
-48 4 0 17 14 29 30 29 38 38 38 62 -2 26 -42 29 -178 5 -178 -16 0 -17 -5
-16 -65 1 -22 -3 -47 -8 -55 -8 -12 -13 -8 -25 20 -11 27 -36 163 -36 196 0 2
-4 4 -10 4 -14 0 -12 -81 5 -175 8 -44 15 -88 15 -97 0 -29 -21 -21 -33 12 -6
17 -17 30 -24 30 -8 0 -13 14 -14 38 0 20 -7 53 -14 72 -13 34 -13 34 -14 -41
-1 -67 2 -80 29 -122 30 -48 86 -85 113 -74 20 8 51 93 95 260 36 138 37 139
63 133 14 -3 48 -18 75 -34 52 -30 62 -49 83 -153 7 -31 18 -65 25 -75 12 -16
16 -17 32 -4 21 18 54 88 53 115 0 13 -19 34 -52 58 -29 21 -74 55 -102 77
-33 26 -67 43 -102 50 -101 21 -236 132 -284 235 l-28 60 -1 -46z"/>
<path d="M18137 9910 c-45 -49 -92 -119 -85 -126 3 -3 23 16 44 42 22 26 54
62 72 81 36 39 38 43 18 43 -7 0 -30 -18 -49 -40z"/>
<path d="M18851 9603 c-6 -16 -16 -55 -21 -87 -11 -71 -41 -119 -129 -207 -62
-62 -73 -69 -164 -98 -79 -25 -112 -31 -175 -29 -77 2 -101 -4 -279 -73 -20
-7 -23 -16 -22 -56 2 -109 30 -130 78 -59 17 24 31 48 31 53 0 5 14 25 30 45
31 37 88 58 162 58 l31 0 -7 -82 c-22 -304 -21 -329 15 -348 94 -51 361 274
454 553 23 69 26 93 24 190 -1 64 3 124 9 140 10 24 9 27 -7 27 -11 0 -23 -11
-30 -27z m-79 -315 c6 6 18 12 26 12 20 0 6 -36 -40 -98 -22 -29 -40 -63 -40
-75 -1 -12 -9 -33 -18 -47 -9 -14 -21 -38 -28 -53 -8 -19 -18 -27 -27 -23 -11
4 -15 -1 -15 -18 0 -12 -15 -43 -34 -67 -18 -24 -38 -57 -43 -74 -5 -16 -18
-32 -27 -33 -10 -2 -27 -13 -38 -24 -35 -35 -43 -6 -12 43 28 45 76 145 88
187 14 44 -12 21 -40 -35 -38 -78 -76 -133 -93 -133 -8 0 -11 6 -6 18 22 57
29 103 17 111 -20 12 22 135 55 160 29 24 52 27 58 9 2 -7 10 -26 16 -43 l11
-30 13 42 c15 50 51 103 70 103 8 0 29 18 47 39 21 26 35 35 40 28 5 -9 10 -9
20 1z"/>
<path d="M1 9093 c-1 -80 2 -113 12 -116 9 -4 9 -6 0 -6 -23 -2 -13 -43 17
-71 49 -46 38 -75 -12 -32 -17 14 -18 13 -18 -17 0 -27 7 -36 55 -66 64 -42
115 -56 115 -32 0 8 -14 46 -31 84 -17 37 -53 129 -79 203 -26 74 -50 142 -53
150 -3 8 -6 -35 -6 -97z"/>
<path d="M19185 8327 c-6 -31 -8 -63 -4 -69 14 -23 20 -1 17 63 l-3 64 -10
-58z"/>
</g>
</svg>
