<?xml version="1.0" standalone="no"?>
<!DOCTYPE svg PUBLIC "-//W3C//DTD SVG 20010904//EN"
 "http://www.w3.org/TR/2001/REC-SVG-20010904/DTD/svg10.dtd">
<svg version="1.0" xmlns="http://www.w3.org/2000/svg"
 width="500.000000pt" height="500.000000pt" viewBox="0 0 500.000000 500.000000"
 preserveAspectRatio="xMidYMid meet">

<g transform="translate(0.000000,500.000000) scale(0.100000,-0.100000)"
fill="#000000" stroke="none">
<path d="M4138 4107 c-8 -146 -39 -185 -153 -195 -36 -2 -65 -8 -65 -12 0 -4
30 -10 66 -13 43 -3 76 -12 93 -24 36 -27 60 -103 61 -190 0 -105 17 -90 22
20 7 145 38 185 153 195 36 2 65 8 65 12 0 4 -30 10 -66 13 -114 9 -145 49
-152 195 -2 50 -8 92 -12 92 -4 0 -9 -42 -12 -93z"/>
<path d="M3567 4054 c-18 -25 -18 -26 -1 -47 11 -12 20 -24 22 -27 2 -2 13 9
26 24 l22 29 -21 23 c-12 13 -24 24 -26 24 -2 0 -12 -12 -22 -26z"/>
<path d="M3336 4013 c-3 -3 -6 -36 -6 -72 0 -97 -17 -196 -41 -242 -26 -52
-77 -75 -181 -85 -104 -9 -105 -29 -2 -37 158 -14 198 -56 217 -228 6 -54 8
-101 5 -105 -4 -3 -44 17 -90 44 -136 82 -299 139 -467 163 -129 18 -354 7
-473 -24 -248 -65 -450 -199 -573 -381 -32 -47 -48 -61 -80 -71 -77 -22 -190
-90 -257 -154 -85 -80 -140 -163 -175 -266 -24 -69 -28 -96 -28 -190 1 -93 5
-123 28 -190 54 -158 175 -296 329 -374 147 -74 142 -73 633 -81 550 -9 520
-1 781 -207 77 -62 153 -115 167 -119 16 -3 41 -1 58 6 49 21 59 53 59 195 l0
125 63 0 c239 0 451 181 493 421 23 132 -4 269 -73 371 -24 36 -31 60 -37 122
-17 189 -118 384 -267 520 l-59 53 0 64 c0 86 15 174 38 218 25 50 87 79 185
87 108 10 101 28 -17 40 -160 18 -193 62 -203 277 -6 110 -11 136 -27 120z
m-681 -675 c104 -39 195 -150 195 -237 0 -48 -34 -114 -78 -150 -67 -56 -73
-62 -70 -78 5 -24 32 -37 63 -29 32 8 135 107 135 130 0 21 6 20 43 -8 67 -50
98 -60 182 -60 95 0 145 20 145 58 0 37 -23 50 -65 36 -61 -20 -131 -14 -181
15 -52 31 -77 67 -100 145 -21 74 -38 104 -86 156 -26 28 -35 44 -26 44 9 0
60 -13 114 -28 305 -88 538 -283 638 -534 21 -54 26 -83 26 -156 0 -96 -10
-136 -47 -193 -24 -36 -77 -71 -124 -83 -73 -17 -199 33 -362 144 -123 83
-187 110 -260 110 -124 -1 -227 -103 -227 -227 0 -53 25 -102 53 -103 4 0 16
9 26 19 17 17 18 25 9 60 -23 92 67 182 166 167 46 -8 124 -49 203 -107 228
-169 431 -192 556 -63 20 21 41 50 48 66 15 36 25 35 45 -4 62 -120 57 -296
-12 -414 -32 -54 -119 -136 -175 -164 -134 -69 -317 -66 -452 7 -27 15 -80 60
-117 100 -71 76 -101 89 -120 53 -15 -28 12 -71 96 -149 71 -67 120 -96 204
-121 l55 -16 3 -119 c1 -65 -1 -122 -5 -126 -4 -4 -73 44 -153 107 -250 199
-297 214 -662 214 -136 0 -248 2 -248 5 0 2 20 23 45 46 54 50 111 159 126
244 17 93 4 178 -52 347 -47 140 -51 158 -47 224 4 54 11 83 31 115 35 60 92
113 152 141 51 24 66 48 45 73 -44 53 -215 -60 -274 -180 -58 -120 -55 -189
19 -417 45 -137 47 -147 43 -238 -3 -81 -8 -105 -33 -153 -34 -68 -98 -130
-163 -160 -58 -26 -194 -34 -275 -17 -85 17 -190 74 -262 142 -123 115 -175
230 -175 393 0 113 24 198 80 285 58 90 201 207 276 226 22 6 23 4 14 -26 -16
-57 -22 -173 -12 -235 22 -133 93 -256 139 -241 37 12 38 42 3 94 -82 124 -84
336 -3 483 133 246 471 430 755 413 44 -2 101 -14 133 -26z"/>
<path d="M3891 3400 l-22 -30 22 -29 22 -30 17 22 c10 12 19 24 20 27 2 3 -6
20 -17 37 l-20 33 -22 -30z"/>
</g>
</svg>
